<?xml version="1.0" encoding="UTF-8"?>
<!-- Generated by Pixelmator Pro 3.5.6 -->
<svg width="1600" height="654" viewBox="0 0 1600 654" xmlns="http://www.w3.org/2000/svg">
    <g id="Layer1">
        <path id="Path" fill="#181889" stroke="none" d="M 757.210022 311.919983 C 735.25 311.919983 717.859985 305.779968 705.02002 293.48999 C 692.179993 281.209961 685.77002 263.630005 685.77002 240.76001 L 685.77002 198.059998 C 685.77002 175.190002 692.190002 157.609985 705.02002 145.330017 C 717.859985 133.049988 735.25 126.900024 757.210022 126.900024 C 779.169983 126.900024 795.840027 132.869995 807.75 144.820007 C 819.650024 156.76001 825.609985 173.150024 825.609985 193.98999 L 825.609985 195.51001 L 792.679993 195.51001 L 792.679993 192.969971 C 792.679993 182.469971 789.77002 173.830017 783.940002 167.049988 C 778.109985 160.27002 769.200012 156.880005 757.210022 156.880005 C 745.219971 156.880005 736.090027 160.52002 729.340027 167.809998 C 722.580017 175.090027 719.210022 185.01001 719.210022 197.539978 L 719.210022 241.25 C 719.210022 253.619995 722.590027 263.48999 729.340027 270.859985 C 736.090027 278.22998 745.380005 281.909973 757.210022 281.909973 C 769.039978 281.909973 778.109985 278.47998 783.940002 271.619995 C 789.77002 264.76001 792.679993 256.159973 792.679993 245.830017 L 792.679993 241.25 L 825.609985 241.25 L 825.609985 244.809998 C 825.609985 265.649963 819.650024 282.039978 807.75 293.97998 C 795.840027 305.929993 779 311.899963 757.210022 311.899963 Z"/>
        <path id="path1" fill="#181889" stroke="none" d="M 897.049988 311.919983 C 884.549988 311.919983 873.320007 309.380005 863.359985 304.299988 C 853.390015 299.219971 845.539978 291.849976 839.799988 282.190002 C 834.059998 272.529968 831.190002 260.929993 831.190002 247.369995 L 831.190002 243.309998 C 831.190002 229.75 834.059998 218.150024 839.799988 208.48999 C 845.539978 198.830017 853.390015 191.460022 863.359985 186.380005 C 873.320007 181.299988 884.549988 178.76001 897.049988 178.76001 C 909.549988 178.76001 920.780029 181.299988 930.75 186.380005 C 940.710022 191.460022 948.570007 198.830017 954.309998 208.48999 C 960.049988 218.150024 962.919983 229.75 962.919983 243.309998 L 962.919983 247.369995 C 962.919983 260.929993 960.049988 272.529968 954.309998 282.190002 C 948.570007 291.849976 940.710022 299.219971 930.75 304.299988 C 920.780029 309.380005 909.549988 311.919983 897.049988 311.919983 Z M 897.049988 283.459961 C 906.840027 283.459961 914.950012 280.279968 921.369995 273.929993 C 927.789978 267.580017 931 258.469971 931 246.609985 L 931 244.070007 C 931 232.210022 927.830017 223.099976 921.5 216.75 C 915.169983 210.400024 907.02002 207.219971 897.049988 207.219971 C 887.080017 207.219971 879.150024 210.400024 872.72998 216.75 C 866.309998 223.099976 863.099976 232.210022 863.099976 244.070007 L 863.099976 246.609985 C 863.099976 258.469971 866.309998 267.580017 872.72998 273.929993 C 879.150024 280.279968 887.25 283.459961 897.049988 283.459961 Z"/>
        <path id="path2" fill="#181889" stroke="none" d="M 968.47998 308.359985 L 968.47998 130.460022 L 1000.400024 130.460022 L 1000.400024 308.359985 L 968.47998 308.359985 Z"/>
        <path id="path3" fill="#181889" stroke="none" d="M 1072.349976 311.919983 C 1059.849976 311.919983 1048.619995 309.380005 1038.660034 304.299988 C 1028.689941 299.219971 1020.840027 291.849976 1015.099976 282.190002 C 1009.359985 272.529968 1006.48999 260.929993 1006.48999 247.369995 L 1006.48999 243.309998 C 1006.48999 229.75 1009.359985 218.150024 1015.099976 208.48999 C 1020.840027 198.830017 1028.689941 191.460022 1038.660034 186.380005 C 1048.619995 181.299988 1059.849976 178.76001 1072.349976 178.76001 C 1084.849976 178.76001 1096.079956 181.299988 1106.050049 186.380005 C 1116.01001 191.460022 1123.869995 198.830017 1129.609985 208.48999 C 1135.349976 218.150024 1138.219971 229.75 1138.219971 243.309998 L 1138.219971 247.369995 C 1138.219971 260.929993 1135.349976 272.529968 1129.609985 282.190002 C 1123.869995 291.849976 1116.01001 299.219971 1106.050049 304.299988 C 1096.079956 309.380005 1084.849976 311.919983 1072.349976 311.919983 Z M 1072.349976 283.459961 C 1082.140015 283.459961 1090.25 280.279968 1096.670044 273.929993 C 1103.089966 267.580017 1106.300049 258.469971 1106.300049 246.609985 L 1106.300049 244.070007 C 1106.300049 232.210022 1103.130005 223.099976 1096.800049 216.75 C 1090.469971 210.400024 1082.319946 207.219971 1072.349976 207.219971 C 1062.380005 207.219971 1054.449951 210.400024 1048.030029 216.75 C 1041.609985 223.099976 1038.400024 232.210022 1038.400024 244.070007 L 1038.400024 246.609985 C 1038.400024 258.469971 1041.609985 267.580017 1048.030029 273.929993 C 1054.449951 280.279968 1062.550049 283.459961 1072.349976 283.459961 Z"/>
        <path id="path4" fill="#181889" stroke="none" d="M 1193.189941 310.390015 C 1183.390015 310.390015 1174.819946 308.149963 1167.47998 303.659973 C 1160.130005 299.169983 1154.430054 292.950012 1150.380005 284.97998 C 1146.329956 277.02002 1144.300049 267.869995 1144.300049 257.529968 L 1144.300049 182.309998 L 1176.219971 182.309998 L 1176.219971 254.98999 C 1176.219971 264.47998 1178.540039 271.599976 1183.189941 276.339966 C 1187.829956 281.080017 1194.459961 283.459961 1203.079956 283.459961 C 1212.869995 283.459961 1220.469971 280.200012 1225.880005 273.669983 C 1231.280029 267.149963 1233.98999 258.039978 1233.98999 246.349976 L 1233.98999 182.309998 L 1265.910034 182.309998 L 1265.910034 308.359985 L 1233.98999 308.359985 L 1233.98999 291.839966 L 1229.939941 291.839966 C 1227.910034 296.080017 1224.109985 300.22998 1218.540039 304.289978 C 1212.969971 308.349976 1204.52002 310.390015 1193.209961 310.390015 Z"/>
        <path id="path5" fill="#181889" stroke="none" d="M 1274.52002 308.359985 L 1274.52002 182.309998 L 1305.930054 182.309998 L 1305.930054 196.539978 L 1310.48999 196.539978 C 1312.349976 191.460022 1315.430054 187.72998 1319.72998 185.359985 C 1324.040039 182.98999 1329.060059 181.799988 1334.800049 181.799988 L 1350 181.799988 L 1350 210.26001 L 1334.290039 210.26001 C 1326.189941 210.26001 1319.51001 212.419983 1314.280029 216.73999 C 1309.040039 221.059998 1306.420044 227.710022 1306.420044 236.690002 L 1306.420044 308.359985 L 1274.5 308.359985 Z"/>
        <path id="path6" fill="#181889" stroke="none" d="M 1375.349976 308.359985 L 1375.349976 210.26001 L 1343.430054 210.26001 L 1343.430054 181.799988 L 1375.349976 181.799988 L 1375.349976 158.929993 C 1375.349976 150.289978 1377.920044 143.390015 1383.079956 138.219971 C 1388.22998 133.049988 1394.939941 130.469971 1403.219971 130.469971 L 1436.150024 130.469971 L 1436.150024 156.900024 L 1414.359985 156.900024 C 1409.630005 156.900024 1407.27002 159.440002 1407.27002 164.52002 L 1407.27002 182.309998 L 1440.199951 182.309998 L 1440.199951 208.73999 L 1407.27002 208.73999 L 1407.27002 308.359985 L 1375.349976 308.359985 Z"/>
        <path id="path7" fill="#181889" stroke="none" d="M 1487.569946 310.390015 C 1477.77002 310.390015 1469.199951 308.149963 1461.859985 303.659973 C 1454.51001 299.169983 1448.810059 292.950012 1444.76001 284.97998 C 1440.709961 277.02002 1438.680054 267.869995 1438.680054 257.529968 L 1438.680054 182.309998 L 1470.599976 182.309998 L 1470.599976 254.98999 C 1470.599976 264.47998 1472.920044 271.599976 1477.569946 276.339966 C 1482.209961 281.080017 1488.839966 283.459961 1497.459961 283.459961 C 1507.25 283.459961 1514.849976 280.200012 1520.26001 273.669983 C 1525.660034 267.149963 1528.369995 258.039978 1528.369995 246.349976 L 1528.369995 182.309998 L 1560.290039 182.309998 L 1560.290039 308.359985 L 1528.880005 308.359985 L 1528.880005 291.839966 L 1524.319946 291.839966 C 1522.290039 296.080017 1518.48999 300.22998 1512.920044 304.289978 C 1507.349976 308.349976 1498.900024 310.390015 1487.589966 310.390015 Z"/>
        <path id="path8" fill="#181889" stroke="none" d="M 1568.079956 308.359985 L 1568.079956 130.460022 L 1600 130.460022 L 1600 308.359985 L 1568.079956 308.359985 Z"/>
        <path id="path9" fill="#181889" stroke="none" d="M 689.820007 522.310059 L 689.820007 344.410004 L 768.859985 344.410004 C 780 344.410004 789.840027 346.660004 798.369995 351.149994 C 806.900024 355.640015 813.570007 361.950012 818.380005 370.080017 C 823.190002 378.209991 825.599976 387.869995 825.599976 399.050018 L 825.599976 402.610016 C 825.599976 413.619995 823.109985 423.240021 818.130005 431.450012 C 813.150024 439.670013 806.390015 446.02002 797.859985 450.51001 C 789.330017 455 779.659973 457.25 768.859985 457.25 L 723.26001 457.25 L 723.26001 522.310059 L 689.820007 522.310059 Z M 723.26001 426.76001 L 765.570007 426.76001 C 773.51001 426.76001 779.919983 424.559998 784.830017 420.149994 C 789.719971 415.75 792.169983 409.730011 792.169983 402.110016 L 792.169983 399.570007 C 792.169983 391.950012 789.719971 385.929993 784.830017 381.52002 C 779.929993 377.119995 773.51001 374.910004 765.570007 374.910004 L 723.26001 374.910004 L 723.26001 426.76001 Z"/>
        <path id="path10" fill="#181889" stroke="none" d="M 885.150024 525.869995 C 872.650024 525.869995 861.630005 523.199951 852.090027 517.859985 C 842.549988 512.52002 835.119995 504.990021 829.799988 495.240021 C 824.47998 485.5 821.820007 474.02002 821.820007 460.800018 L 821.820007 457.75 C 821.820007 444.540009 824.440002 433.059998 829.679993 423.309998 C 834.909973 413.570007 842.26001 406.029999 851.719971 400.690002 C 861.169983 395.350006 872.150024 392.679993 884.650024 392.679993 C 897.150024 392.679993 907.700012 395.429993 916.820007 400.940002 C 925.940002 406.450012 933.030029 414.070007 938.099976 423.809998 C 943.169983 433.550018 945.700012 444.860016 945.700012 457.740021 L 945.700012 468.670013 L 854.25 468.670013 C 854.580017 477.309998 857.789978 484.339996 863.880005 489.76001 C 869.960022 495.179993 877.390015 497.890015 886.169983 497.890015 C 894.950012 497.890015 901.700012 495.940002 905.929993 492.040009 C 910.150024 488.140015 913.359985 483.830017 915.559998 479.080017 L 941.659973 492.800018 C 939.289978 497.209991 935.869995 501.990021 931.400024 507.160004 C 926.919983 512.329956 920.969971 516.72998 913.539978 520.380005 C 906.109985 524.02002 896.650024 525.849976 885.169983 525.849976 Z M 854.5 444.800018 L 913.27002 444.800018 C 912.590027 437.52002 909.679993 431.670013 904.530029 427.26001 C 899.380005 422.860016 892.659973 420.649994 884.390015 420.649994 C 876.119995 420.649994 868.940002 422.860016 863.869995 427.26001 C 858.799988 431.670013 855.679993 437.52002 854.5 444.800018 Z"/>
        <path id="path11" fill="#181889" stroke="none" d="M 1020.169983 525.869995 C 1007.669983 525.869995 996.440002 523.329956 986.47998 518.25 C 976.51001 513.170044 968.659973 505.800018 962.919983 496.140015 C 957.179993 486.480011 954.309998 474.880005 954.309998 461.320007 L 954.309998 457.26001 C 954.309998 443.700012 957.179993 432.100006 962.919983 422.440002 C 968.659973 412.779999 976.51001 405.410004 986.47998 400.330017 C 996.440002 395.25 1007.669983 392.709991 1020.169983 392.709991 C 1032.670044 392.709991 1043.900024 395.25 1053.869995 400.330017 C 1063.829956 405.410004 1071.689941 412.779999 1077.430054 422.440002 C 1083.170044 432.100006 1086.040039 443.700012 1086.040039 457.26001 L 1086.040039 461.320007 C 1086.040039 474.880005 1083.170044 486.480011 1077.430054 496.140015 C 1071.689941 505.800018 1063.829956 513.170044 1053.869995 518.25 C 1043.900024 523.329956 1032.670044 525.869995 1020.169983 525.869995 Z M 1020.169983 497.410004 C 1029.959961 497.410004 1038.069946 494.230011 1044.48999 487.880005 C 1050.910034 481.529999 1054.119995 472.420013 1054.119995 460.559998 L 1054.119995 458.02002 C 1054.119995 446.160004 1050.949951 437.050018 1044.619995 430.700012 C 1038.290039 424.350006 1030.140015 421.170013 1020.169983 421.170013 C 1010.200012 421.170013 1002.27002 424.350006 995.849976 430.700012 C 989.429993 437.050018 986.219971 446.160004 986.219971 458.02002 L 986.219971 460.559998 C 986.219971 472.420013 989.429993 481.529999 995.849976 487.880005 C 1002.27002 494.230011 1010.369995 497.410004 1020.169983 497.410004 Z"/>
        <path id="path12" fill="#181889" stroke="none" d="M 1094.630005 573.140015 L 1094.630005 396.26001 L 1126.040039 396.26001 L 1126.040039 411.51001 L 1130.599976 411.51001 C 1133.469971 406.600006 1137.939941 402.230011 1144.030029 398.420013 C 1150.109985 394.610016 1158.810059 392.700012 1170.119995 392.700012 C 1180.25 392.700012 1189.630005 395.200012 1198.23999 400.200012 C 1206.849976 405.200012 1213.77002 412.52002 1219.01001 422.179993 C 1224.25 431.839996 1226.869995 443.529999 1226.869995 457.25 L 1226.869995 461.309998 C 1226.869995 475.029999 1224.25 486.720001 1219.01001 496.380005 C 1213.77002 506.040009 1206.849976 513.369995 1198.23999 518.359985 C 1189.630005 523.359985 1180.25 525.859985 1170.119995 525.859985 C 1162.52002 525.859985 1156.140015 524.969971 1150.98999 523.190063 C 1145.839966 521.410034 1141.699951 519.130005 1138.579956 516.329956 C 1135.449951 513.530029 1132.959961 510.700012 1131.109985 507.809998 L 1126.550049 507.809998 L 1126.550049 573.119995 L 1094.630005 573.119995 Z M 1160.5 497.910004 C 1170.459961 497.910004 1178.699951 494.730011 1185.199951 488.380005 C 1191.699951 482.029999 1194.949951 472.75 1194.949951 460.550018 L 1194.949951 458.01001 C 1194.949951 445.809998 1191.660034 436.529999 1185.069946 430.179993 C 1178.47998 423.830017 1170.290039 420.649994 1160.5 420.649994 C 1150.709961 420.649994 1142.51001 423.830017 1135.930054 430.179993 C 1129.339966 436.529999 1126.050049 445.809998 1126.050049 458.01001 L 1126.050049 460.550018 C 1126.050049 472.75 1129.339966 482.029999 1135.930054 488.380005 C 1142.52002 494.730011 1150.709961 497.910004 1160.5 497.910004 Z"/>
        <path id="path13" fill="#181889" stroke="none" d="M 1233.969971 522.310059 L 1233.969971 344.410004 L 1265.890015 344.410004 L 1265.890015 522.310059 L 1233.969971 522.310059 Z"/>
        <path id="path14" fill="#181889" stroke="none" d="M 1337.849976 525.869995 C 1325.349976 525.869995 1314.329956 523.199951 1304.790039 517.859985 C 1295.25 512.52002 1287.819946 504.990021 1282.5 495.240021 C 1277.180054 485.5 1274.52002 474.02002 1274.52002 460.800018 L 1274.52002 457.75 C 1274.52002 444.540009 1277.140015 433.059998 1282.380005 423.309998 C 1287.609985 413.570007 1294.959961 406.029999 1304.420044 400.690002 C 1313.869995 395.350006 1324.849976 392.679993 1337.349976 392.679993 C 1349.849976 392.679993 1360.400024 395.429993 1369.52002 400.940002 C 1378.640015 406.450012 1385.72998 414.070007 1390.800049 423.809998 C 1395.869995 433.550018 1398.400024 444.860016 1398.400024 457.740021 L 1398.400024 468.670013 L 1306.949951 468.670013 C 1307.280029 477.309998 1310.48999 484.339996 1316.579956 489.76001 C 1322.660034 495.179993 1330.089966 497.890015 1338.869995 497.890015 C 1347.650024 497.890015 1354.400024 495.940002 1358.630005 492.040009 C 1362.849976 488.140015 1366.060059 483.830017 1368.26001 479.080017 L 1394.359985 492.800018 C 1391.98999 497.209991 1388.569946 501.990021 1384.099976 507.160004 C 1379.619995 512.329956 1373.670044 516.72998 1366.23999 520.380005 C 1358.810059 524.02002 1349.349976 525.849976 1337.869995 525.849976 Z M 1307.199951 444.800018 L 1365.969971 444.800018 C 1365.290039 437.52002 1362.380005 431.670013 1357.22998 427.26001 C 1352.079956 422.860016 1345.359985 420.649994 1337.089966 420.649994 C 1328.819946 420.649994 1321.640015 422.860016 1316.569946 427.26001 C 1311.5 431.670013 1308.380005 437.52002 1307.199951 444.800018 Z"/>
        <path id="path15" fill="#181889" stroke="none" d="M 261.170013 652.930054 C 116.93 652.930054 0 535.969971 0 391.700012 C 0 247.429993 116.93 130.469971 261.170013 130.469971 L 261.170013 230.529968 C 261.170013 246.47998 250.179993 260.559998 234.570007 263.799988 C 175.210007 276.089966 130.589996 328.679993 130.589996 391.700012 C 130.589996 463.839996 189.059998 522.319946 261.179993 522.319946 L 261.179993 652.940063 Z"/>
        <path id="path16" fill="#181889" stroke="none" d="M 652.929993 130.469971 L 522.340027 130.469971 C 522.340027 202.609985 463.869995 261.080017 391.75 261.080017 L 311.529999 261.080017 C 283.709991 261.080017 261.160004 283.630005 261.160004 311.459961 L 261.160004 522.310059 L 352.130005 522.310059 C 374.01001 522.310059 391.75 504.570007 391.75 482.679993 L 391.75 417.320007 C 391.75 403.470001 402.279999 391.850006 416.070007 390.570007 C 548.909973 378.300018 652.919983 266.529968 652.919983 130.460022 Z"/>
        <path id="path17" fill="#181889" stroke="none" d="M 261.170013 130.469971 L 261.170013 39.109985 C 261.170013 17.450012 278.76001 -0.140015 300.420013 -0.140015 L 391.73999 -0.140015 C 463.820007 -0.140015 522.340027 58.380005 522.340027 130.460022 L 522.340027 130.469971 L 261.170013 130.469971 L 261.170013 130.469971 Z"/>
    </g>
</svg>
